<svg width="18" height="19" viewBox="0 0 18 19" fill="none" xmlns="http://www.w3.org/2000/svg">
<path fill-rule="evenodd" clip-rule="evenodd" d="M0 9.5C0 14.4706 4.02944 18.5 9 18.5C13.9706 18.5 18 14.4706 18 9.5C18 4.52944 13.9706 0.5 9 0.5C4.02944 0.5 0 4.52944 0 9.5ZM13.2803 6.34467C12.9874 6.05178 12.5126 6.05178 12.2197 6.34467L7.5 11.0638L5.78033 9.34467L5.70967 9.28228C5.41546 9.05351 4.99003 9.07431 4.71967 9.34467C4.42678 9.63756 4.42678 10.1124 4.71967 10.4053L6.96967 12.6553L7.04033 12.7177C7.33454 12.9465 7.75997 12.9257 8.03033 12.6553L13.2803 7.40533L13.3427 7.33467C13.5715 7.04046 13.5507 6.61503 13.2803 6.34467Z" fill="#BCCCD6"/>
</svg>
